<?xml version="1.0" encoding="UTF-8" standalone="no"?>
<!-- Created with Inkscape (http://www.inkscape.org/) -->

<svg
   width="57.80661mm"
   height="57.149963mm"
   viewBox="0 0 57.80661 57.149963"
   version="1.1"
   id="svg5"
   inkscape:version="1.1.2 (0a00cf5339, 2022-02-04)"
   sodipodi:docname="paw1.svg"
   xmlns:inkscape="http://www.inkscape.org/namespaces/inkscape"
   xmlns:sodipodi="http://sodipodi.sourceforge.net/DTD/sodipodi-0.dtd"
   xmlns="http://www.w3.org/2000/svg"
   xmlns:svg="http://www.w3.org/2000/svg">
  <sodipodi:namedview
     id="namedview7"
     pagecolor="#ffffff"
     bordercolor="#666666"
     borderopacity="1.0"
     inkscape:pageshadow="2"
     inkscape:pageopacity="0.0"
     inkscape:pagecheckerboard="0"
     inkscape:document-units="mm"
     showgrid="false"
     inkscape:object-paths="false"
     inkscape:snap-bbox="true"
     inkscape:lockguides="false"
     inkscape:snap-global="true"
     inkscape:snap-object-midpoints="false"
     inkscape:snap-nodes="true"
     inkscape:zoom="1.5766948"
     inkscape:cx="27.58936"
     inkscape:cy="153.48563"
     inkscape:window-width="1920"
     inkscape:window-height="1131"
     inkscape:window-x="0"
     inkscape:window-y="0"
     inkscape:window-maximized="1"
     inkscape:current-layer="layer1" />
  <defs
     id="defs2" />
  <g
     inkscape:label="Слой 1"
     inkscape:groupmode="layer"
     id="layer1"
     transform="translate(-31.338919,-97.202703)">
    <path
       id="use18126"
       style="fill:#000000;fill-opacity:1;stroke:none;stroke-width:0.271639;stroke-linecap:butt;stroke-linejoin:miter;stroke-miterlimit:4;stroke-dasharray:none;stroke-opacity:1"
       d="m 70.659974,151.79304 c 3.067292,0.16983 5.786341,-1.51726 7.042949,-3.50243 1.256618,-1.98517 1.121914,-4.75601 0.217115,-6.44358 -1.140853,-2.12785 -3.788616,-2.71855 -6.319198,-5.60433 -1.518596,-1.73176 -2.783313,-4.78281 -4.967557,-6.41458 -1.70071,-1.27054 -3.819386,-2.35197 -5.966019,-2.35197 -2.146634,0 -4.265309,1.08143 -5.96602,2.35197 -2.184244,1.63177 -3.448961,4.68282 -4.967557,6.41458 -2.530582,2.88578 -5.178345,3.47648 -6.319198,5.60433 -0.904799,1.68757 -1.039502,4.45841 0.217115,6.44358 1.256608,1.98517 3.975658,3.67226 7.042949,3.50243 4.259995,-0.23587 6.583696,-2.11144 9.992711,-2.11144 3.409014,0 5.732715,1.87557 9.99271,2.11144 z"
       sodipodi:nodetypes="ssssaaassssas" />
    <path
       id="path23472"
       style="fill:#000000;fill-opacity:1;stroke:none;stroke-width:0.271639;stroke-linecap:butt;stroke-linejoin:miter;stroke-miterlimit:4;stroke-dasharray:none;stroke-opacity:1"
       d="m 42.992847,120.1846 c -1.227885,-1.58507 -2.819288,-2.63142 -3.676652,-2.46295 -1.864619,0.36638 -3.879466,2.9238 -4.617801,4.90971 -0.738335,1.98589 -1.257371,7.854 -0.33225,10.62308 0.440342,1.31803 1.412699,2.54662 2.617362,3.29104 1.04288,0.64444 2.390867,0.92256 3.619562,0.78782 1.737224,-0.1905 3.626639,-0.8802 4.732091,-2.19402 0.924671,-1.09897 1.032505,-2.71113 1.060428,-4.12941 0.04521,-2.29665 -0.694078,-4.60078 -1.30966,-6.81887 -0.356043,-1.28291 -1.270286,-2.94426 -2.09308,-4.0064 z"
       sodipodi:nodetypes="sszsssssss" />
    <path
       id="path23472-3"
       style="fill:#000000;fill-opacity:1;stroke:none;stroke-width:0.271639;stroke-linecap:butt;stroke-linejoin:miter;stroke-miterlimit:4;stroke-dasharray:none;stroke-opacity:1"
       d="m 57.123877,103.3296 c -0.730328,-1.32913 -2.339609,-2.5721 -3.889765,-2.48589 -2.949919,0.16405 -5.406289,2.99101 -6.796293,5.52021 -1.848453,3.36338 -2.261434,8.36141 -1.245534,11.37039 0.483549,1.43217 1.551333,2.76719 2.874201,3.57609 1.14523,0.70029 2.625497,1.00249 3.974761,0.85604 1.907694,-0.20696 4.199955,-0.80597 5.19646,-2.38404 0.891869,-1.41236 1.091073,-3.46135 1.164482,-4.48715 0.178196,-2.49005 0.27334,-5.04114 -0.07123,-7.52832 -0.21004,-1.51611 -0.292187,-2.77231 -1.207081,-4.43733 z"
       sodipodi:nodetypes="saasssssas" />
    <path
       id="path28568"
       style="fill:#000000;fill-opacity:1;stroke:none;stroke-width:0.271639;stroke-linecap:butt;stroke-linejoin:miter;stroke-miterlimit:4;stroke-dasharray:none;stroke-opacity:1"
       d="m 77.891593,120.1846 c 1.227885,-1.58507 2.819288,-2.63142 3.676652,-2.46295 1.864618,0.36638 3.879466,2.9238 4.617801,4.90971 0.738335,1.98589 1.257371,7.854 0.332249,10.62308 -0.440341,1.31803 -1.412698,2.54662 -2.617362,3.29104 -1.042879,0.64444 -2.390866,0.92256 -3.619561,0.78782 -1.737224,-0.1905 -3.626639,-0.8802 -4.732091,-2.19402 -0.924671,-1.09897 -1.032506,-2.71113 -1.060428,-4.12941 -0.04521,-2.29665 0.694078,-4.60078 1.30966,-6.81887 0.356042,-1.28291 1.270286,-2.94426 2.09308,-4.0064 z"
       sodipodi:nodetypes="sszsssssss" />
    <path
       id="path28570"
       style="fill:#000000;fill-opacity:1;stroke:none;stroke-width:0.271639;stroke-linecap:butt;stroke-linejoin:miter;stroke-miterlimit:4;stroke-dasharray:none;stroke-opacity:1"
       d="m 63.760563,103.3296 c 0.730328,-1.32913 2.339609,-2.5721 3.889765,-2.48589 2.949919,0.16405 5.406288,2.99101 6.796292,5.52021 1.848454,3.36338 2.261435,8.36141 1.245535,11.37039 -0.483549,1.43217 -1.551333,2.76719 -2.874202,3.57609 -1.145229,0.70029 -2.625496,1.00249 -3.97476,0.85604 -1.907694,-0.20696 -4.199955,-0.80597 -5.19646,-2.38404 -0.89187,-1.41236 -1.091073,-3.46135 -1.164482,-4.48715 -0.178197,-2.49005 -0.273341,-5.04114 0.07123,-7.52832 0.21004,-1.51611 0.292187,-2.77231 1.207082,-4.43733 z"
       sodipodi:nodetypes="saasssssas" />
  </g>
</svg>
